<?xml version="1.0" encoding="iso-8859-1"?>
<!-- Uploaded to: SVG Repo, www.svgrepo.com, Generator: SVG Repo Mixer Tools -->
<svg height="800px" width="800px" version="1.1" id="Layer_1" xmlns="http://www.w3.org/2000/svg" xmlns:xlink="http://www.w3.org/1999/xlink" 
	 viewBox="0 0 512 512" xml:space="preserve">
<g>
	<path style="fill:#C74C4E;" d="M359.709,259.503c-6.806-5.925-7.52-16.247-1.594-23.053l45.162-51.871
		c5.924-6.807,16.247-7.52,23.053-1.594c6.806,5.925,7.52,16.247,1.594,23.053l-45.162,51.871
		C376.839,264.713,366.516,265.43,359.709,259.503z"/>
	<path style="fill:#C74C4E;" d="M471.925,348.109l-69.034-17.429c-8.75-2.209-14.052-11.094-11.843-19.844
		c2.209-8.75,11.092-14.049,19.844-11.843l69.034,17.429c8.75,2.209,14.052,11.094,11.843,19.844
		C489.566,344.99,480.705,350.321,471.925,348.109z"/>
	<path style="fill:#C74C4E;" d="M471.925,418.285L389.599,397.5c-8.75-2.209-14.052-11.094-11.843-19.844
		s11.093-14.048,19.844-11.843l82.326,20.785c8.75,2.209,14.052,11.094,11.843,19.844
		C489.566,415.166,480.705,420.497,471.925,418.285z"/>
</g>
<g>
	<path style="fill:#DE5153;" d="M129.243,257.909l-45.162-51.871c-5.926-6.806-5.213-17.128,1.594-23.053
		c6.805-5.927,17.128-5.213,23.053,1.594l45.162,51.871c5.926,6.806,5.213,17.128-1.594,23.053
		C145.499,265.423,135.176,264.723,129.243,257.909z"/>
	<path style="fill:#DE5153;" d="M20.236,336.265c-2.208-8.75,3.094-17.634,11.843-19.844l69.034-17.429
		c8.753-2.207,17.634,3.095,19.844,11.843c2.208,8.75-3.094,17.634-11.843,19.844L40.08,348.109
		C31.312,350.318,22.442,345.003,20.236,336.265z"/>
	<path style="fill:#DE5153;" d="M20.236,406.441c-2.208-8.75,3.094-17.634,11.843-19.844l82.326-20.785
		c8.755-2.208,17.634,3.095,19.844,11.843c2.208,8.75-3.094,17.634-11.843,19.844L40.08,418.285
		C31.312,420.494,22.442,415.179,20.236,406.441z"/>
</g>
<g>
	<path style="fill:#FC5B5D;" d="M256.002,469.7c-91.186,0-168.195-61.349-168.195-140.746c0-79.418,77.028-140.747,168.195-140.747
		c91.186,0,168.195,61.349,168.195,140.747C424.197,408.372,347.17,469.7,256.002,469.7z"/>
	<path style="fill:#FC5B5D;" d="M96.403,211.649c-85.855,0-128.48-104.248-68.164-164.563c6.38-6.38,16.727-6.38,23.108,0
		l45.056,45.056l45.056-45.056c6.378-6.38,16.728-6.381,23.11,0C224.836,107.36,182.337,211.649,96.403,211.649z"/>
</g>
<g>
	<path style="fill:#DE5153;" d="M256.002,188.207h-0.001V469.7c0,0,0.001,0,0.002,0c91.168,0,168.195-61.328,168.195-140.746
		C424.197,249.556,347.189,188.207,256.002,188.207z"/>
	<path style="fill:#DE5153;" d="M415.601,211.649c-85.858,0-128.478-104.243-68.165-164.563c6.375-6.375,16.729-6.383,23.109,0
		l45.056,45.056l45.056-45.056c6.38-6.38,16.727-6.38,23.108,0C544.033,107.353,501.539,211.649,415.601,211.649z"/>
</g>
<g>
	<circle style="fill:#555C5E;" cx="206.716" cy="243.764" r="21.616"/>
	<circle style="fill:#555C5E;" cx="305.28" cy="243.764" r="21.616"/>
</g>
</svg>