<svg xmlns="http://www.w3.org/2000/svg" viewBox="0 0 48 48">
  <path fill="url(#a)"
    d="M5 12.917C5 7.77 7.77 5 12.917 5h22.166C40.23 5 43 7.77 43 12.917v22.166C43 40.23 40.23 43 35.083 43H12.917C7.77 43 5 40.23 5 35.083V12.917Z" />
  <path fill="#000" d="M8.5 14a5 5 0 0 1 5-5h21a5 5 0 0 1 5 5v20a5 5 0 0 1-5 5h-21a5 5 0 0 1-5-5V14Z" />
  <path fill="#fefefe"
    d="m27.773 15.137-2.397 2.456-.003.002-.009.01 2.636.53C27.625 19.791 26.452 21 25.063 21 23.37 21 22 19.21 22 17s1.371-4 3.063-4c1.176 0 2.198.866 2.71 2.137Zm-10 0-2.397 2.456-.003.002-.009.01 2.636.53C17.625 19.791 16.452 21 15.063 21 13.37 21 12 19.21 12 17s1.371-4 3.063-4c1.176 0 2.198.866 2.71 2.137Z" />
  <defs>
    <linearGradient id="a" x1="24" x2="24" y1="5" y2="43" gradientUnits="userSpaceOnUse">
      <stop stop-color="#fb43fe" />
      <stop offset=".484" stop-color="#cf91f6" />
      <stop offset=".813" stop-color="#73c9ea" />
      <stop offset="1" stop-color="#00dbe5" />
    </linearGradient>
  </defs>
</svg>
