<?xml version="1.0" encoding="utf-8"?>
<!-- Uploaded to: SVG Repo, www.svgrepo.com, Generator: SVG Repo Mixer Tools -->
<svg width="800px" height="800px" viewBox="0 0 14 14" role="img" focusable="false" aria-hidden="true" xmlns="http://www.w3.org/2000/svg">
<g transform="translate(-.19805716 -.19922642) scale(.2998)">
<path fill="#64b5f6" d="M17.474 8.5778l26.544 8.904-8.904 26.544-26.544-8.904z"/>
<path fill="#1e88e5" d="M19.2376 12.5044l20.922 6.82-6.2 19.02-20.922-6.82z"/>
<path fill="#90caf9" d="M10.88120032 5.77840047l27.524 5.068-5.068 27.524-27.524-5.068z"/>
<path fill="#42a5f5" d="M13.2185 9.4435l21.67 3.85-3.5 19.7-21.67-3.85z"/>
<path fill="#bbdefb" d="M4 4h28v28H4z"/>
<path fill="#4caf50" d="M7 7h22v20H7z"/>
<path fill="#ffffff" d="M16 13c0-1.1.9-2 2-2s2 .9 2 2-2 4-2 4-2-2.9-2-4zm4 8c0 1.1-.9 2-2 2s-2-.9-2-2 2-4 2-4 2 2.9 2 4z"/>
<path fill="#ffffff" d="M13.5 16.7c-1-.6-1.3-1.8-.7-2.7.6-1 1.8-1.3 2.7-.7 1 .6 2.5 3.7 2.5 3.7s-3.5.3-4.5-.3zm9 .6c1 .6 1.3 1.8.7 2.7-.6 1-1.8 1.3-2.7.7-1-.5-2.5-3.7-2.5-3.7s3.5-.3 4.5.3z"/>
<path fill="#ffffff" d="M22.5 16.7c1-.6 1.3-1.8.7-2.7-.6-1-1.8-1.3-2.7-.7-1 .5-2.5 3.7-2.5 3.7s3.5.3 4.5-.3zm-9 .6c-1 .6-1.3 1.8-.7 2.7.6 1 1.8 1.3 2.7.7 1-.6 2.5-3.7 2.5-3.7s-3.5-.3-4.5.3z"/>
<circle cx="18" cy="17" r="2" fill="#ffc107"/>
</g>
</svg>