<?xml version="1.0" encoding="iso-8859-1"?>
<!-- Uploaded to: SVG Repo, www.svgrepo.com, Generator: SVG Repo Mixer Tools -->
<svg version="1.1" id="Layer_1" xmlns="http://www.w3.org/2000/svg" xmlns:xlink="http://www.w3.org/1999/xlink" 
	 viewBox="0 0 512 512" xml:space="preserve">
<path style="fill:#F2F2F3;" d="M503.326,96.182V41.221h-41.221V0h-54.961v41.221H104.856V0H49.895v41.221H8.674v54.961h41.221
	v319.635H8.674v54.961h41.221V512h54.961v-41.221h302.288V512h54.961v-41.221h41.221v-54.961h-41.221V96.182H503.326z"/>
<polygon style="fill:#DEDDE0;" points="256,415.818 256,96.182 256,41.221 104.856,41.221 104.856,0 49.895,0 49.895,41.221 
	8.674,41.221 8.674,96.182 49.895,96.182 49.895,415.818 8.674,415.818 8.674,470.779 49.895,470.779 49.895,512 104.856,512 
	104.856,470.779 256,470.779 "/>
<g>
	<rect x="49.891" y="41.221" style="fill:#D80027;" width="54.961" height="54.961"/>
	<rect x="49.891" y="415.811" style="fill:#D80027;" width="54.961" height="54.961"/>
</g>
<g>
	<rect x="407.14" y="41.221" style="fill:#FF5023;" width="54.961" height="54.961"/>
	<rect x="407.14" y="415.811" style="fill:#FF5023;" width="54.961" height="54.961"/>
</g>
<rect x="104.852" y="95.946" style="fill:#00D7DF;" width="302.288" height="319.875"/>
<rect x="104.852" y="95.946" style="fill:#00A1A7;" width="151.144" height="319.875"/>
<path style="fill:#616064;" d="M216.128,95.963h80.187l110.827,319.855h-89.201l-19.37-62.62h-85.146l-18.92,62.62h-89.649
	L216.128,95.963z M284.606,294.636l-28.382-99.115l-29.734,99.115H284.606z"/>
<polygon points="256,294.636 226.49,294.636 256,196.267 256,95.963 216.128,95.963 104.856,415.818 194.505,415.818 
	213.427,353.197 256,353.197 "/>
</svg>