<?xml version="1.0" ?>
<!-- Uploaded to: SVG Repo, www.svgrepo.com, Generator: SVG Repo Mixer Tools -->
<svg width="800px" height="800px" viewBox="0 0 12.7 12.7" id="svg8" version="1.1" xmlns="http://www.w3.org/2000/svg" xmlns:cc="http://creativecommons.org/ns#" xmlns:dc="http://purl.org/dc/elements/1.1/" xmlns:inkscape="http://www.inkscape.org/namespaces/inkscape" xmlns:rdf="http://www.w3.org/1999/02/22-rdf-syntax-ns#" xmlns:sodipodi="http://sodipodi.sourceforge.net/DTD/sodipodi-0.dtd" xmlns:svg="http://www.w3.org/2000/svg">
<defs id="defs2">
<clipPath clipPathUnits="userSpaceOnUse" id="clipPath5343">
<path d="m 3.0688351,285.55677 c -1.613568,1.19596 -2.5662181,3.08478 -2.56883509,5.09323 0,3.50701 2.84299219,6.35 6.35000009,6.35 C 10.357008,297 13.2,294.15701 13.2,290.65 c -0.0022,-0.84296 -0.452078,-2.71271 -0.500228,-2.45359 -0.02424,0.84121 -0.571809,2.35322 -0.602031,2.23138 -0.0026,-0.50621 -0.2876,-1.42626 -0.305098,-1.19509 0.02804,1.40695 -1.48374,3.17677 -2.3076623,3.50038 -0.8310457,0.36942 -1.7371637,0.56412 -2.6117267,0.56534 -0.1736918,2e-5 -1.1686519,-0.13807 -1.6443439,-0.70435 -0.826376,-0.89253 -0.00201,-1.09994 0.4625039,-1.27331 0.5055862,-0.18871 1.030887,-0.30969 1.5203212,-0.42013 0.7456988,-0.16826 0.4710618,-0.52626 0.1049028,-0.6289 -0.9266939,-0.25976 -2.044886,0.33543 -2.8654579,0.30593 -0.848406,-0.0291 -0.804618,-1.69621 -0.1405601,-1.76217 0.7394212,-0.0734 1.6665151,-0.51079 1.461779,-0.65673 -0.8303549,-0.61672 -0.9617369,-0.79081 -1.0595549,-1.16418 -0.1480201,-0.565 0.341282,-1.03557 0.05777,-0.96356 -0.2596169,0.08 -0.4110678,0.15641 -0.5988619,0.25715 -0.1672929,0.0897 -0.293814,0.0546 -0.6751841,0.002 -0.3249449,-0.045 -0.3870058,-0.0557 -0.3755009,-0.25673 0.0115,-0.20097 0.07295,-0.52125 -0.05223,-0.47648 z" id="path5345" style="fill:#7aafff;fill-opacity:1;stroke:none;stroke-width:2.01045942;stroke-linecap:round;stroke-linejoin:round;stroke-miterlimit:4;stroke-dasharray:none;stroke-opacity:1"/>
</clipPath>
</defs>
<g id="layer1" transform="translate(0,-284.3)">
<path d="m 285.45284,-81.35939 a 6.3499994,6.3499994 0 0 1 -3.175,5.499261 6.3499994,6.3499994 0 0 1 -6.35,0 l 3.175,-5.499261 z" id="path4508" style="fill:#80decc;fill-opacity:1;stroke:none;stroke-width:2.05646634;stroke-linecap:round;stroke-linejoin:round;stroke-miterlimit:4;stroke-dasharray:none;stroke-opacity:1" transform="rotate(105)"/>
<path d="m -62.742126,282.38983 a 6.3499994,6.3499994 0 0 1 -3.174999,5.49926 6.3499994,6.3499994 0 0 1 -6.35,0 l 3.175,-5.49926 z" id="path4508-3" style="fill:#ffac76;fill-opacity:1;stroke:none;stroke-width:2.05646634;stroke-linecap:round;stroke-linejoin:round;stroke-miterlimit:4;stroke-dasharray:none;stroke-opacity:1" transform="rotate(-15)"/>
<path d="m -203.66071,-201.03046 a 6.3499994,6.3499994 0 0 1 -3.175,5.49926 6.3499994,6.3499994 0 0 1 -6.35,0 l 3.175,-5.49926 z" id="path4508-6" style="fill:#ffb6b6;fill-opacity:1;stroke:none;stroke-width:2.05646634;stroke-linecap:round;stroke-linejoin:round;stroke-miterlimit:4;stroke-dasharray:none;stroke-opacity:1" transform="rotate(-135)"/>
<g id="g4790" transform="matrix(1.1061635,0,0,1.1061635,-13.51743,-29.343677)">
<path d="m 16.480932,287.89614 a 2.2724838,2.2724838 0 0 0 -0.652673,1.5906 2.2724838,2.2724838 0 0 0 1.505334,2.13682 l 0.607715,-2.26704 z" id="path4508-7" style="fill:#5dc1ae;fill-opacity:1;stroke:none;stroke-width:2.11666656;stroke-linecap:round;stroke-linejoin:round;stroke-miterlimit:4;stroke-dasharray:none;stroke-opacity:1"/>
<path d="m 18.100472,287.21453 a 2.2724838,2.2724838 0 0 0 -1.620056,0.68161 l 1.460892,1.46038 2.302702,-0.61702 a 2.2724838,2.2724838 0 0 0 -2.143538,-1.52497 z" id="path4508-6-9" style="fill:#ff7d7d;fill-opacity:1;stroke:none;stroke-width:2.11666656;stroke-linecap:round;stroke-linejoin:round;stroke-miterlimit:4;stroke-dasharray:none;stroke-opacity:1"/>
<path d="m 20.244528,288.7395 -2.30322,0.61702 -0.607198,2.26653 a 2.2724838,2.2724838 0 0 0 0.766878,0.13642 2.2724838,2.2724838 0 0 0 2.272731,-2.27221 2.2724838,2.2724838 0 0 0 -0.129191,-0.74776 z" id="path4508-3-94" style="fill:#ff924b;fill-opacity:1;stroke:none;stroke-width:2.11666656;stroke-linecap:round;stroke-linejoin:round;stroke-miterlimit:4;stroke-dasharray:none;stroke-opacity:1"/>
</g>
<g id="g4782" transform="matrix(1.0945663,0,0,1.0945663,14.466723,-39.098074)">
<circle cx="-7.4333425" cy="301.24445" id="path4533-9" r="2.1143575" style="fill:#ffffff;fill-opacity:1;stroke:none;stroke-width:1.14740372;stroke-linecap:round;stroke-linejoin:round;stroke-miterlimit:4;stroke-dasharray:none;stroke-opacity:1"/>
<circle cx="-7.4333425" cy="301.24445" id="path4533" r="1.5680859" style="fill:#7aafff;fill-opacity:1;stroke:none;stroke-width:0.85095716;stroke-linecap:round;stroke-linejoin:round;stroke-miterlimit:4;stroke-dasharray:none;stroke-opacity:1"/>
</g>
</g>
</svg>